<svg width="18" height="10" viewBox="0 0 18 10" fill="none" xmlns="http://www.w3.org/2000/svg">
<path d="M18 6.43898C18 6.34791 17.9804 6.25683 17.9411 6.17486C17.9019 6.0929 17.8528 6.02004 17.7841 5.95628L14.6827 3.07832C14.398 2.81421 13.9269 2.81421 13.6423 3.07832C13.3577 3.34244 13.3577 3.7796 13.6423 4.04372C14.3006 4.65462 13.8684 5.75592 12.9703 5.75592H3.68048C2.46347 5.75592 1.47219 4.83607 1.47219 3.70674V0.68306C1.47219 0.309654 1.1385 0 0.736096 0C0.333697 0 0 0.309654 0 0.68306V3.70674C0 5.59199 1.64885 7.12204 3.68048 7.12204H12.9703C13.8684 7.12204 14.3006 8.22334 13.6423 8.83424C13.3577 9.09836 13.3577 9.53552 13.6423 9.79964C13.7895 9.93625 13.976 10 14.1625 10C14.349 10 14.5354 9.93625 14.6827 9.79964L17.7841 6.92168C17.8528 6.85792 17.9019 6.78506 17.9411 6.7031C17.9804 6.62113 18 6.53005 18 6.43898Z" fill="white"/>
</svg>
